<svg width="16.000000" height="16.000000" viewBox="0 0 16 16" fill="none" xmlns="http://www.w3.org/2000/svg" xmlns:xlink="http://www.w3.org/1999/xlink">
	<defs/>
	<path id="lock" d="M16 8C16 12.4182 12.418 16 8 16C3.58203 16 0 12.4182 0 8C0 3.58179 3.58203 0 8 0C12.418 0 16 3.58179 16 8ZM10.1328 7.33325L10.1328 6C10.1328 4.89575 9.17773 4 8 4C6.82227 4 5.86719 4.89575 5.86719 6L5.86719 7.33325L4.7998 7.33325L4.7998 12L11.2002 12L11.2002 7.33325L10.1328 7.33325ZM6.57812 7.33325L6.57812 6C6.57812 5.26465 7.21582 4.66675 8 4.66675C8.78418 4.66675 9.42188 5.26465 9.42188 6L9.42188 7.33325L6.57812 7.33325Z" fill="#969AF7" fill-opacity="1.000000" fill-rule="evenodd"/>
</svg>
