<svg width="33.000000" height="33.000000" viewBox="0 0 33 33" fill="none" xmlns="http://www.w3.org/2000/svg" xmlns:xlink="http://www.w3.org/1999/xlink">
	<desc>
			Created with Pixso.
	</desc>
	<defs/>
	<circle id="Ellipse 11" cx="16.500000" cy="16.500000" r="16.500000" fill="#FFFFFF" fill-opacity="1.000000"/>
	<path id="Vector" d="M23.6621 20.453C23.6211 20.3304 23.3623 20.1499 22.8848 19.9116C22.7559 19.8367 22.5723 19.7346 22.334 19.6052C22.0957 19.4757 21.8789 19.3564 21.6846 19.2474C21.4902 19.1385 21.3086 19.033 21.1387 18.9309C21.1113 18.9105 21.0264 18.851 20.8828 18.7521C20.7402 18.6533 20.6191 18.5801 20.5205 18.5323C20.4209 18.4849 20.3242 18.4609 20.2285 18.4609C20.0928 18.4609 19.9229 18.5581 19.7188 18.7521C19.5137 18.9463 19.3271 19.1572 19.1562 19.3856C18.9863 19.6139 18.8057 19.8248 18.6152 20.0189C18.4248 20.2131 18.2676 20.3102 18.1455 20.3102C18.084 20.3102 18.0068 20.293 17.915 20.2592C17.8232 20.2252 17.7539 20.196 17.7051 20.1725C17.6582 20.1484 17.5762 20.101 17.4609 20.0292C17.3447 19.9576 17.2803 19.9185 17.2666 19.9116C16.333 19.3939 15.5332 18.8014 14.8652 18.1342C14.1982 17.4666 13.6055 16.6664 13.0879 15.7333C13.0811 15.7196 13.042 15.6549 12.9707 15.5392C12.8984 15.4233 12.8506 15.3417 12.8271 15.2939C12.8037 15.2462 12.7744 15.1764 12.7402 15.0845C12.7061 14.9926 12.6895 14.916 12.6895 14.8546C12.6895 14.7321 12.7861 14.5753 12.9805 14.3846C13.1748 14.1941 13.3857 14.0134 13.6143 13.8434C13.8418 13.6732 14.0527 13.4858 14.2471 13.2816C14.4414 13.0773 14.5381 12.907 14.5381 12.7709C14.5381 12.6755 14.5146 12.5784 14.4668 12.4797C14.4189 12.3807 14.3457 12.26 14.2471 12.1169C14.1484 11.9739 14.0889 11.8888 14.0684 11.8615C13.9668 11.6913 13.8613 11.5092 13.752 11.3151C13.6426 11.121 13.5234 10.9045 13.3945 10.6663C13.2646 10.428 13.1631 10.244 13.0879 10.1146C12.8496 9.63794 12.6689 9.37903 12.5459 9.33838C12.499 9.31787 12.4268 9.30762 12.332 9.30762C12.1475 9.30762 11.9082 9.34155 11.6113 9.40979C11.3154 9.47791 11.082 9.54932 10.9121 9.62439C10.5713 9.76733 10.21 10.1827 9.8291 10.8705C9.48145 11.5106 9.30762 12.1442 9.30762 12.7706C9.30762 12.9545 9.31934 13.1332 9.34375 13.307C9.36719 13.4807 9.41016 13.6765 9.4707 13.8945C9.53223 14.1124 9.58203 14.2743 9.61914 14.3798C9.65625 14.4852 9.72656 14.6742 9.82812 14.9467C9.93066 15.2191 9.99219 15.3859 10.0127 15.4473C10.251 16.1147 10.5332 16.7106 10.8604 17.2351C11.3984 18.1068 12.1318 19.0077 13.0615 19.9374C13.9912 20.8671 14.8926 21.601 15.7646 22.1389C16.2891 22.4658 16.8848 22.7484 17.5527 22.9869C17.6133 23.0073 17.7803 23.0685 18.0527 23.1709C18.3252 23.2731 18.5146 23.3429 18.6201 23.3804C18.7256 23.4178 18.8877 23.4673 19.1055 23.5287C19.3232 23.59 19.5186 23.6326 19.6924 23.6566C19.8662 23.6801 20.0449 23.6923 20.2285 23.6923C20.8555 23.6923 21.4893 23.5184 22.1289 23.1711C22.8174 22.7899 23.2324 22.4288 23.375 22.088C23.4502 21.918 23.5215 21.6847 23.5898 21.3883C23.6582 21.0922 23.6924 20.8522 23.6924 20.6682C23.6924 20.5725 23.6826 20.5011 23.6621 20.453Z" fill="#07086C" fill-opacity="1.000000" fill-rule="nonzero"/>
</svg>
