<svg width="14.000977" height="6.998779" viewBox="0 0 14.001 6.99878" fill="none" xmlns="http://www.w3.org/2000/svg" xmlns:xlink="http://www.w3.org/1999/xlink">
	<defs/>
	<path id="Vector" d="M14.001 1.16125C14.002 1.31067 13.9688 1.45825 13.9043 1.59326C13.8408 1.72827 13.7471 1.84717 13.6309 1.94128L7.63086 6.77124C7.45215 6.91846 7.22754 6.99878 6.99609 6.99878C6.76465 6.99878 6.54004 6.91846 6.36133 6.77124L0.361328 1.77124C0.157227 1.60156 0.0283203 1.35767 0.00390625 1.09326C-0.0205078 0.828735 0.0615234 0.565552 0.231445 0.361328C0.401367 0.157104 0.644531 0.0286865 0.90918 0.00427246C1.17383 -0.0201416 1.4375 0.0615234 1.6416 0.231323L7.00098 4.70117L12.3613 0.381348C12.5078 0.259033 12.6865 0.181274 12.876 0.157471C13.0654 0.133545 13.2578 0.164429 13.4307 0.246582C13.6035 0.328613 13.749 0.458374 13.8496 0.620483C13.9512 0.782593 14.0039 0.970215 14.001 1.16125Z" fill="#FFFFFF" fill-opacity="1.000000" fill-rule="nonzero"/>
</svg>
