<svg width="14.000977" height="6.998779" viewBox="0 0 14.001 6.99878" fill="none" xmlns="http://www.w3.org/2000/svg" xmlns:xlink="http://www.w3.org/1999/xlink">
	<defs/>
	<path id="Vector" d="M14.001 5.8374C14.002 5.68799 13.9688 5.54053 13.9043 5.40552C13.8408 5.27051 13.7471 5.15161 13.6309 5.05737L7.63086 0.227539C7.45215 0.0803223 7.22754 0 6.99609 0C6.76465 0 6.54004 0.0803223 6.36133 0.227539L0.361328 5.22754C0.157227 5.39722 0.0283203 5.64111 0.00390625 5.90552C-0.0205078 6.16992 0.0615234 6.43335 0.231445 6.63745C0.401367 6.8418 0.644531 6.97021 0.90918 6.99463C1.17383 7.0188 1.4375 6.93726 1.6416 6.76758L7.00098 2.29761L12.3613 6.61743C12.5078 6.73975 12.6865 6.81738 12.876 6.84131C13.0654 6.86523 13.2578 6.83423 13.4307 6.7522C13.6035 6.67017 13.749 6.54053 13.8496 6.37842C13.9512 6.21631 14.0039 6.02856 14.001 5.8374Z" fill="#000985" fill-opacity="1.000000" fill-rule="nonzero"/>
</svg>
