<svg width="441.821289" height="268.372070" viewBox="0 0 441.821 268.372" fill="none" xmlns="http://www.w3.org/2000/svg" xmlns:xlink="http://www.w3.org/1999/xlink">
	<defs>
		<linearGradient id="paint_linear_13_395_0" x1="-53.752716" y1="-21.017273" x2="409.835632" y2="268.372070" gradientUnits="userSpaceOnUse">
			<stop offset="0.085152" stop-color="#041080"/>
			<stop offset="1.000000" stop-color="#0926C0"/>
		</linearGradient>
	</defs>
	<path id="Vector" d="M441.821 20C441.821 8.95435 432.867 0 421.821 0L47.8213 0C36.7764 0 27.8213 8.95435 27.8213 20L27.8213 90.9857L1.15332 130.746C-0.384766 133.04 -0.384766 136.758 1.15332 139.052L27.8213 178.812L27.8213 248.372C27.8213 259.418 36.7764 268.372 47.8213 268.372L421.821 268.372C432.867 268.372 441.821 259.418 441.821 248.372L441.821 183.823L414.634 139.119C413.199 136.76 413.199 132.934 414.634 130.575L441.821 85.8705L441.821 20Z" fill="#969AF7" fill-opacity="1.000000" fill-rule="evenodd"/>
	<path id="Vector" d="M441.821 20C441.821 8.95435 432.867 0 421.821 0L47.8213 0C36.7764 0 27.8213 8.95435 27.8213 20L27.8213 90.9857L1.15332 130.746C-0.384766 133.04 -0.384766 136.758 1.15332 139.052L27.8213 178.812L27.8213 248.372C27.8213 259.418 36.7764 268.372 47.8213 268.372L421.821 268.372C432.867 268.372 441.821 259.418 441.821 248.372L441.821 183.823L414.634 139.119C413.199 136.76 413.199 132.934 414.634 130.575L441.821 85.8705L441.821 20Z" fill="url(#paint_linear_13_395_0)" fill-opacity="1.000000" fill-rule="evenodd"/>
</svg>
