<svg width="413.000000" height="268.372070" viewBox="0 0 413 268.372" fill="none" xmlns="http://www.w3.org/2000/svg" xmlns:xlink="http://www.w3.org/1999/xlink">
	<defs>
		<linearGradient id="paint_linear_13_364_0" x1="463.246246" y1="-21.017273" x2="29.899506" y2="268.372040" gradientUnits="userSpaceOnUse">
			<stop offset="0.085152" stop-color="#041080"/>
			<stop offset="1.000000" stop-color="#0926C0"/>
		</linearGradient>
	</defs>
	<path id="Subtract" d="M393 0C404.046 0 413 8.95435 413 20L413 84.5562L385.014 130.575C383.578 132.934 383.578 136.76 385.014 139.119L413 185.138L413 248.372C413 259.418 404.046 268.372 393 268.372L20 268.372C8.9541 268.372 0 259.418 0 248.372L0 20C0 8.95435 8.9541 0 20 0L393 0Z" fill="#969AF7" fill-opacity="1.000000" fill-rule="nonzero"/>
	<path id="Subtract" d="M393 0C404.046 0 413 8.95435 413 20L413 84.5562L385.014 130.575C383.578 132.934 383.578 136.76 385.014 139.119L413 185.138L413 248.372C413 259.418 404.046 268.372 393 268.372L20 268.372C8.9541 268.372 0 259.418 0 248.372L0 20C0 8.95435 8.9541 0 20 0L393 0Z" fill="url(#paint_linear_13_364_0)" fill-opacity="1.000000" fill-rule="nonzero"/>
	<path id="Subtract" d="" fill="#FFFFFF" fill-opacity="0" fill-rule="evenodd"/>
</svg>
